<?xml version="1.0" standalone="no"?>
<!DOCTYPE svg PUBLIC "-//W3C//DTD SVG 20010904//EN"
 "http://www.w3.org/TR/2001/REC-SVG-20010904/DTD/svg10.dtd">
<svg version="1.0" xmlns="http://www.w3.org/2000/svg"
 width="300.000000pt" height="300.000000pt" viewBox="0 0 300.000000 300.000000"
 preserveAspectRatio="xMidYMid meet">
<metadata>
Created by potrace 1.10, written by Peter Selinger 2001-2011
</metadata>
<g transform="translate(0.000000,300.000000) scale(0.100000,-0.100000)"
fill="#000000" stroke="none">
<path fill="green"  d="M1176 2673 c-1 -2 -32 -3 -69 -4 -37 -1 -67 -5 -67 -10 0 -4 -8 -10
-17 -13 -18 -5 27 0 122 14 57 9 85 -4 33 -15 -18 -4 -37 -11 -43 -15 -5 -4
-49 -7 -97 -6 -47 1 -81 -2 -75 -6 7 -5 3 -8 -10 -8 -12 0 -25 5 -28 10 -3 6
-12 10 -18 10 -8 0 -8 -3 1 -9 9 -5 -1 -12 -33 -21 -49 -14 -62 -24 -44 -36 8
-4 9 -3 5 4 -4 7 0 13 11 13 44 3 160 18 191 25 12 2 22 1 22 -4 0 -17 100 1
151 28 29 15 123 14 159 -2 30 -13 82 -68 65 -68 -3 0 -1 -9 5 -19 13 -25 5
-29 -53 -32 -25 -2 -44 -6 -41 -10 2 -5 11 -6 19 -3 7 3 39 0 69 -6 54 -11 69
-23 44 -33 -7 -3 2 -6 20 -6 20 -1 32 -6 32 -15 0 -8 16 -15 41 -19 23 -3 45
-11 49 -17 4 -6 11 -10 16 -8 5 1 30 -4 56 -11 44 -13 47 -15 42 -40 -5 -21
-4 -24 7 -13 27 25 55 12 122 -56 37 -37 64 -71 61 -75 -4 -4 -2 -7 6 -7 10 0
10 -3 0 -15 -10 -12 -15 -13 -21 -4 -5 9 -17 9 -50 1 -36 -9 -46 -8 -61 5 -18
16 -48 12 -48 -7 0 -5 9 -10 19 -10 49 0 219 -55 207 -67 -3 -3 10 -25 29 -48
23 -28 35 -53 35 -73 0 -17 5 -32 11 -34 9 -3 9 -10 -1 -27 -10 -19 -9 -31 6
-70 9 -25 20 -48 23 -51 4 -3 18 -20 33 -38 43 -52 88 -87 88 -68 0 9 -4 15
-8 13 -15 -4 -113 106 -107 121 3 8 1 20 -5 27 -8 9 -5 14 9 18 14 3 26 -7 46
-39 15 -23 36 -51 46 -60 10 -9 19 -23 19 -29 0 -7 6 -15 14 -18 14 -6 42 -47
32 -47 -2 0 -12 8 -22 17 -16 16 -16 16 -9 -7 11 -40 40 -75 64 -78 17 -3 22
-9 18 -22 -3 -11 -1 -18 5 -17 5 1 17 -8 25 -20 19 -28 -2 -33 -22 -6 -7 9
-22 17 -33 18 -12 1 -31 10 -42 20 -13 12 -24 15 -28 9 -4 -5 -23 -10 -42 -10
-63 -2 -129 -21 -164 -48 -39 -29 -61 -34 -52 -11 3 8 1 15 -4 15 -10 0 -14
-14 -10 -40 1 -8 -1 -12 -5 -9 -10 11 -135 -120 -135 -142 0 -10 5 -19 11 -19
5 0 8 4 5 9 -3 5 11 23 32 40 20 17 57 51 82 76 50 49 106 74 222 100 l78 17
47 -29 c27 -16 53 -39 59 -51 6 -13 14 -18 20 -12 6 6 15 5 24 0 12 -8 11 -11
-7 -16 -29 -8 -30 -24 -2 -24 15 0 19 -5 15 -15 -3 -9 0 -15 9 -15 8 0 15 -5
15 -12 0 -7 12 -29 27 -51 43 -62 39 -87 -7 -47 -13 11 -28 20 -33 20 -6 0 5
-11 24 -24 51 -36 80 -68 75 -83 -6 -15 13 -64 29 -75 6 -5 5 -8 -2 -8 -9 0
-11 -11 -8 -35 2 -20 0 -33 -4 -30 -9 5 -26 -42 -22 -59 3 -12 -20 -37 -29
-31 -4 2 -5 -7 -2 -21 4 -21 7 -23 21 -12 14 11 14 11 5 -2 -6 -8 -11 -26 -12
-40 -1 -14 -6 -26 -12 -28 -13 -5 -13 -42 0 -42 6 0 10 -5 10 -11 0 -6 -9 -9
-20 -6 -23 6 -27 -8 -5 -17 16 -6 15 -62 -1 -87 -4 -7 -3 -9 3 -6 6 4 16 0 23
-8 11 -13 10 -14 -4 -9 -15 6 -16 2 -9 -22 4 -16 7 -44 6 -62 -1 -26 2 -33 15
-30 18 3 18 13 5 143 -6 71 -7 67 6 128 6 26 13 71 16 100 4 29 14 63 23 77
24 38 22 134 -6 192 -12 26 -22 57 -22 68 0 79 -228 456 -356 590 -21 22 -38
55 -48 90 -21 79 -24 86 -60 113 -23 18 -36 41 -50 86 -10 33 -22 61 -27 61
-6 0 -5 10 1 23 11 22 11 22 -5 2 -16 -20 -17 -20 -30 -1 -8 10 -12 23 -9 27
3 5 -1 9 -9 9 -8 0 -27 17 -43 38 -15 20 -22 32 -14 26 12 -9 18 -9 28 2 11
12 3 19 -14 12 -3 -2 -10 5 -15 15 -6 9 -17 17 -24 17 -8 0 -15 5 -15 10 0 7
-6 7 -17 0 -14 -9 -45 -1 -137 35 -65 25 -125 45 -132 45 -7 0 -18 9 -24 20
-9 16 -8 20 5 20 8 0 15 5 15 11 0 5 -4 7 -10 4 -5 -3 -10 -1 -10 5 0 6 -5 8
-10 5 -6 -4 -10 -3 -9 2 4 25 -2 53 -11 48 -6 -4 -9 -3 -8 2 5 14 -26 49 -57
65 -25 13 -209 30 -219 21z m1084 -1024 c0 -7 8 -18 18 -25 14 -11 15 -13 2
-14 -9 0 -21 5 -28 12 -15 15 -16 38 -2 38 6 0 10 -5 10 -11z"/>
<path fill="green"  d="M1410 2663 c13 -10 37 -30 52 -45 31 -30 37 -25 10 8 -9 12 -33 29
-52 38 -34 16 -34 16 -10 -1z"/>
<path fill="green"  d="M945 2580 c-21 -4 -41 -13 -43 -19 -2 -6 -8 -11 -14 -11 -6 0 -8 7
-4 15 15 40 -81 -45 -103 -90 -6 -14 -16 -37 -22 -52 -22 -54 -34 -72 -85
-125 -28 -29 -53 -61 -57 -71 -4 -10 -11 -16 -16 -12 -5 3 -13 0 -17 -6 -4 -8
-3 -9 4 -5 28 17 7 -16 -53 -87 -36 -42 -65 -81 -65 -86 0 -6 -6 -9 -12 -7 -7
1 -10 1 -6 -1 4 -3 1 -21 -7 -40 -25 -59 -9 -49 19 13 15 31 29 55 32 51 3 -3
-6 -31 -21 -63 -30 -66 -59 -170 -50 -183 3 -5 1 -12 -5 -16 -14 -9 -12 -22 3
-22 8 0 14 5 15 11 5 53 17 106 29 129 8 15 11 32 8 37 -12 20 26 77 111 166
22 24 37 47 32 52 -4 4 10 21 32 38 22 16 42 38 46 49 3 11 19 40 34 65 15 25
31 55 35 68 3 12 17 34 31 49 13 14 24 33 24 43 0 31 71 80 137 95 18 3 35 11
38 16 7 10 7 10 -50 -1z"/>
<path fill="green"  d="M742 2535 c-41 -32 -102 -106 -102 -122 0 -5 5 -1 10 7 8 13 10 12
10 -4 0 -16 3 -15 20 7 12 15 21 30 21 34 0 4 7 15 15 24 8 9 11 19 7 23 -5 4
-1 7 7 6 27 -4 41 0 35 9 -3 6 5 19 17 30 35 33 7 23 -40 -14z"/>
<path fill="green"  d="M675 2385 c-32 -19 -85 -88 -85 -111 0 -14 21 11 37 44 14 29 18 33
21 18 3 -16 7 -14 18 12 7 18 19 32 26 32 7 0 22 7 32 15 32 24 -4 16 -49 -10z"/>
<path fill="green"  d="M1327 2343 c-4 -3 -27 -8 -52 -10 -26 -1 -58 -9 -73 -17 -24 -13 -25
-15 -8 -22 10 -4 34 -2 52 5 25 9 39 9 55 1 15 -8 19 -9 15 -1 -11 17 5 13 26
-6 18 -16 19 -16 9 10 -6 15 -8 27 -5 27 16 0 46 -24 59 -48 l16 -27 -4 27
c-2 15 0 25 4 22 5 -3 9 -11 9 -17 0 -7 7 -20 14 -30 12 -16 14 -16 20 -2 3 9
2 13 -4 10 -6 -3 -10 5 -10 19 0 21 -9 28 -55 45 -64 24 -60 23 -68 14z"/>
<path fill="green"  d="M1878 2323 c6 -2 12 -9 12 -14 0 -6 -6 -7 -12 -3 -9 5 -9 3 1 -9 7
-9 17 -14 23 -11 5 3 16 0 24 -7 8 -6 17 -9 20 -6 3 3 -6 13 -20 22 -14 10
-23 21 -20 26 3 5 -5 9 -18 8 -13 0 -17 -3 -10 -6z"/>
<path fill="green"  d="M1170 2209 c-25 -11 -56 -34 -69 -51 l-25 -30 25 7 c26 8 41 24 33
37 -3 4 2 5 10 2 8 -3 19 3 26 15 6 12 19 21 30 21 10 0 22 5 25 10 9 15 -4
12 -55 -11z"/>
<path fill="green"  d="M1230 2086 c-5 -5 -10 -7 -10 -3 0 16 -63 -50 -80 -84 -23 -44 -38
-171 -19 -151 7 7 13 31 12 53 -3 77 61 161 131 175 25 4 47 -1 82 -17 92 -44
104 -49 104 -45 0 2 -15 13 -32 25 -18 11 -44 28 -57 38 -27 20 -114 26 -131
9z"/>
<path fill="green"  d="M1257 2038 c-43 -16 -32 -43 18 -43 45 0 58 11 44 37 -11 20 -21 21
-62 6z"/>
<path fill="green"  d="M1342 2021 c7 -11 14 -18 17 -16 2 3 10 0 18 -7 8 -6 26 -13 40 -14
30 -3 31 -4 -35 29 -46 24 -51 25 -40 8z"/>
<path fill="green"  d="M535 2005 c-16 -13 -36 -29 -42 -35 -15 -12 -17 -30 -5 -30 5 0 19
12 32 28 12 15 30 35 38 45 21 24 12 21 -23 -8z"/>
<path fill="green"  d="M1198 2003 c-15 -18 -24 -37 -38 -85 -6 -21 -5 -28 5 -28 8 0 11 7 8
20 -3 11 6 39 21 65 28 47 29 57 4 28z"/>
<path fill="green"  d="M571 1958 c-47 -76 -47 -75 -15 -43 31 30 50 65 36 65 -4 0 -13 -10
-21 -22z"/>
<path fill="green"  d="M1514 1930 l-2 -40 18 23 c12 14 15 26 9 33 -5 6 -6 14 -2 17 3 4 0
7 -8 7 -9 0 -14 -13 -15 -40z"/>
<path fill="green"  d="M636 1894 c-4 -9 -9 -14 -13 -11 -3 4 -12 -5 -20 -19 -23 -46 -14
-49 18 -6 17 24 29 45 26 48 -2 3 -7 -3 -11 -12z"/>
<path fill="green"  d="M1891 1897 c-27 -13 -56 -56 -66 -99 -11 -45 20 -35 59 20 19 26 44
53 55 60 46 27 3 45 -48 19z"/>
<path fill="green"  d="M457 1801 c-10 -51 -8 -103 7 -136 12 -27 13 -21 9 60 -6 110 -8 119
-16 76z"/>
<path fill="green"  d="M350 1754 c-27 -69 6 -109 35 -43 10 22 16 42 13 45 -4 3 -12 -12
-19 -33 -10 -32 -13 -35 -19 -18 -4 11 -4 32 1 48 10 34 2 36 -11 1z"/>
<path fill="green"  d="M404 1705 c-7 -19 -14 -42 -14 -52 0 -10 -6 -30 -14 -44 -7 -14 -17
-39 -21 -55 l-8 -29 -7 30 c-7 27 -8 25 -9 -15 0 -34 2 -41 10 -30 8 11 9 7 4
-17 -7 -35 11 -110 32 -133 10 -11 9 -2 -3 34 -18 51 -15 160 5 194 12 20 12
21 13 -50 1 -31 5 -55 10 -52 4 3 5 -10 2 -28 -4 -25 -3 -29 5 -18 12 17 12
18 16 -85 3 -88 20 -127 75 -179 28 -26 50 -56 50 -67 0 -39 29 -89 93 -156
35 -37 86 -93 112 -123 74 -86 121 -105 178 -75 28 14 30 14 69 -27 22 -23 47
-52 55 -64 8 -13 21 -20 29 -17 11 4 12 9 3 19 -6 8 -15 11 -20 8 -5 -3 -9 1
-9 10 0 8 -21 32 -46 54 -46 39 -46 39 -31 68 l16 29 15 -37 c16 -38 29 -52
39 -41 4 3 -4 27 -18 52 -13 25 -26 54 -29 64 -3 10 -10 15 -16 12 -5 -3 -8 0
-5 7 3 7 -5 24 -16 38 -17 20 -20 21 -14 5 29 -81 24 -120 -19 -148 -59 -39
-100 -20 -202 92 l-49 54 45 -31 c25 -17 49 -28 54 -24 5 3 -1 12 -15 21 -52
33 -106 98 -119 144 -7 26 -16 47 -19 47 -4 0 -12 14 -18 30 -14 38 0 85 29
101 17 9 24 7 44 -17 13 -15 24 -25 25 -23 0 2 2 12 4 22 4 21 -29 37 -75 37
-27 0 -63 -31 -89 -78 -8 -15 -15 -11 -48 27 -50 58 -52 62 -57 113 -3 24 -8
52 -11 63 -4 12 1 9 13 -9 11 -16 26 -48 32 -72 7 -24 15 -44 19 -44 3 0 13
-15 21 -32 l14 -33 8 40 c10 44 3 79 -11 56 -6 -9 -14 -4 -32 20 -12 18 -18
29 -11 25 20 -12 14 4 -13 36 -25 30 -34 55 -15 43 14 -8 12 5 -4 34 -8 14
-12 31 -9 38 3 7 -1 21 -8 30 -12 14 -12 16 0 8 11 -6 13 -3 8 16 -4 13 -7 31
-7 39 0 13 -2 13 -9 0 -6 -8 -7 -18 -5 -22 3 -4 0 -8 -5 -8 -16 0 -11 73 14
188 8 35 -14 26 -31 -13z m202 -662 l13 -38 -25 30 c-13 17 -24 39 -24 50 0
28 20 5 36 -42z"/>
<path fill="green"  d="M504 1606 c-4 -9 -4 -20 0 -23 3 -4 6 2 6 12 0 10 3 15 8 11 7 -8 8
-13 11 -41 0 -8 6 -15 11 -15 7 0 7 6 1 19 -6 10 -8 21 -5 23 2 3 -2 11 -11
18 -12 10 -16 9 -21 -4z"/>
<path fill="green"  d="M818 1450 c-3 -17 -1 -33 4 -36 5 -3 5 -11 1 -17 -4 -7 0 -6 10 2 18
15 23 26 7 16 -5 -3 -10 -1 -10 4 0 6 4 11 9 11 4 0 6 11 3 25 -6 34 -19 31
-24 -5z"/>
<path fill="green"  d="M690 1396 c0 -8 5 -18 10 -21 6 -3 10 -15 10 -26 0 -33 37 -94 74
-123 42 -32 45 -30 11 10 -14 16 -32 43 -41 59 -8 17 -22 41 -30 55 -7 14 -14
33 -14 43 0 9 -4 17 -10 17 -5 0 -10 -6 -10 -14z"/>
<path fill="green"  d="M812 1351 c-11 -7 -11 -11 1 -22 7 -8 16 -34 20 -57 7 -53 10 -57 37
-42 12 6 19 14 16 17 -3 3 -12 0 -21 -7 -13 -11 -15 -9 -17 11 0 13 0 34 1 45
1 12 -5 24 -14 28 -8 3 -15 10 -15 16 0 6 5 8 12 4 7 -4 8 -3 4 4 -8 14 -7 14
-24 3z"/>
<path fill="green"  d="M620 1332 c0 -4 -13 -13 -30 -19 -16 -6 -30 -18 -30 -27 0 -18 11
-21 26 -7 5 5 25 14 46 20 20 7 39 19 42 28 5 13 4 14 -8 4 -10 -8 -16 -9 -21
-1 -7 12 -25 14 -25 2z"/>
<path fill="green"  d="M1306 1225 c-4 -13 -2 -16 9 -11 9 3 15 0 15 -8 0 -8 -5 -16 -11 -18
-7 -2 -9 -11 -6 -18 3 -10 9 -4 18 18 8 17 19 32 26 32 7 0 13 5 13 10 0 7 -6
7 -18 1 -13 -7 -22 -7 -29 0 -7 7 -12 5 -17 -6z"/>
<path fill="green"  d="M747 1150 c-21 -49 -21 -50 -2 -50 8 0 15 -4 15 -10 0 -20 21 -9 30
15 5 14 14 25 20 25 17 0 11 21 -12 41 -13 10 -25 18 -28 19 -3 0 -13 -18 -23
-40z"/>
<path fill="green"  d="M990 1160 c-15 -28 -12 -37 5 -14 13 17 14 17 15 2 0 -10 4 -18 9
-18 14 0 9 39 -6 44 -7 3 -17 -3 -23 -14z"/>
<path fill="green"  d="M872 1133 c22 -41 47 -60 34 -27 -3 9 -6 20 -6 25 0 5 -5 9 -11 9 -7
0 -18 8 -26 18 -8 9 -4 -2 9 -25z"/>
<path fill="green"  d="M865 1058 c11 -15 24 -28 29 -28 17 0 -28 -29 -46 -30 -10 0 -18 -4
-18 -10 0 -13 4 -13 45 4 44 19 44 38 3 68 l-32 22 19 -26z"/>
<path fill="green"  d="M2133 1038 c-1 -10 2 -16 8 -13 5 4 9 -2 9 -12 0 -15 2 -15 10 -3 5
9 5 19 0 26 -6 6 -8 13 -5 16 3 2 -1 5 -8 5 -7 0 -14 -9 -14 -19z"/>
<path fill="green"  d="M717 1008 c7 -8 10 -18 6 -21 -14 -14 29 -18 59 -6 l32 13 -29 7
c-17 4 -41 11 -55 15 -22 6 -23 5 -13 -8z"/>
<path fill="green"  d="M980 998 c0 -10 -4 -18 -10 -18 -5 0 -10 -5 -10 -11 0 -5 5 -7 10 -4
6 3 13 -1 16 -9 3 -9 10 -13 15 -10 5 3 12 -2 15 -10 3 -9 10 -16 15 -16 16 0
-3 29 -23 36 -11 3 -17 11 -15 18 3 7 1 19 -4 27 -7 11 -9 11 -9 -3z"/>
<path fill="green"  d="M1514 915 c-17 -25 -14 -42 4 -31 9 5 23 56 16 56 -2 0 -11 -11 -20
-25z"/>
<path fill="green"  d="M2529 652 c11 -22 26 -44 32 -47 6 -4 1 11 -10 33 -11 22 -26 44 -32
47 -6 4 -1 -11 10 -33z"/>
<path fill="green"  d="M2811 590 c-18 -15 -19 -20 -7 -20 9 0 25 9 36 20 26 26 3 26 -29 0z"/>
<path fill="green"  d="M2960 603 c16 -6 30 -23 30 -35 0 -4 -8 -4 -17 -1 -13 5 -13 3 3 -13
19 -19 19 -19 22 4 5 35 -5 52 -30 51 -15 0 -18 -3 -8 -6z"/>
<path fill="green"  d="M2723 571 c-13 -12 -16 -12 -24 0 -6 10 -9 8 -9 -11 -1 -23 -2 -24
-14 -7 -11 14 -15 15 -19 4 -3 -8 3 -21 13 -30 15 -12 26 -13 59 -5 40 10 56
28 26 28 -8 0 -15 5 -15 10 0 6 9 10 20 10 11 0 20 4 20 9 0 14 -41 9 -57 -8z"/>
<path fill="green"  d="M2527 553 c-13 -12 -7 -24 9 -21 10 2 19 -3 21 -10 3 -8 -1 -10 -14
-6 -16 6 -16 5 2 -9 19 -15 20 -14 23 9 l3 25 20 -22 c23 -26 24 -33 5 -26 -8
3 -17 -1 -20 -9 -7 -17 -1 -17 46 -1 54 19 55 24 13 48 -38 23 -96 35 -108 22z"/>
<path fill="green"  d="M2773 513 c-68 -33 -71 -54 -6 -37 13 4 20 10 17 15 -7 12 3 11 28
-2 15 -8 19 -8 14 0 -7 11 16 15 63 11 14 -1 21 2 17 9 -4 6 -2 11 4 11 7 0 9
-8 5 -20 -6 -20 -6 -20 29 -3 53 25 31 43 -53 42 -50 0 -79 -7 -118 -26z"/>
<path fill="green"  d="M1090 499 c0 -4 9 -9 20 -12 11 -3 20 -10 20 -16 0 -7 -8 -7 -26 -1
-33 13 -136 2 -150 -16 -9 -11 -18 -12 -38 -4 -19 7 -25 7 -21 0 4 -7 -2 -9
-19 -4 -22 5 -25 3 -20 -11 6 -15 4 -15 -13 -4 -27 16 -55 5 -46 -18 6 -15 4
-16 -9 -5 -8 7 -24 11 -34 9 -33 -7 -124 -49 -124 -58 0 -5 -7 -9 -15 -9 -8 0
-15 -1 -15 -3 0 -1 -4 -17 -9 -35 -8 -25 -7 -32 2 -29 7 2 12 10 12 18 1 15
24 14 39 -2 6 -6 6 -13 -2 -21 -7 -7 -12 -20 -12 -30 0 -10 -4 -18 -10 -18
-13 0 -13 -27 1 -32 7 -2 6 -17 -3 -46 -13 -43 -27 -55 -29 -24 0 11 -2 13 -6
4 -3 -8 4 -27 16 -43 11 -15 21 -36 21 -46 0 -10 4 -23 8 -30 4 -6 7 19 7 55
0 37 7 101 15 142 l14 75 9 -77 c5 -43 13 -78 18 -78 12 0 11 56 -3 126 -11
57 -23 78 -40 68 -4 -3 -8 4 -8 15 0 12 5 21 10 21 6 0 10 -5 10 -12 0 -7 5
-6 13 4 8 10 74 27 189 48 136 26 175 36 171 47 -4 11 3 12 35 7 23 -3 53 -3
67 0 25 6 25 7 8 30 -16 22 -53 32 -53 15z"/>
<path fill="green"  d="M1171 476 c-2 -17 51 -177 56 -172 3 3 -2 32 -11 63 -18 61 -44 124
-45 109z"/>
<path fill="green"  d="M2365 473 c-42 -10 -39 -23 6 -22 25 1 51 -1 57 -5 8 -5 10 -2 6 8
-3 9 -10 16 -14 16 -5 0 -14 2 -22 4 -7 2 -22 1 -33 -1z"/>
<path fill="green"  d="M1635 340 c-4 -6 -16 -8 -27 -4 -14 4 -19 2 -16 -7 2 -7 9 -14 14
-16 13 -4 51 24 42 32 -3 3 -9 1 -13 -5z"/>
<path fill="green"  d="M1129 276 c-5 -4 -89 -17 -135 -20 -37 -3 -104 -33 -104 -46 0 -6 -6
-10 -14 -10 -7 0 -20 -8 -27 -17 -10 -11 -10 -14 -2 -9 11 6 25 10 68 19 6 2
26 13 45 27 18 13 31 19 27 13 -13 -21 17 -20 57 1 26 13 41 16 43 9 3 -8 14
-8 33 -3 17 5 47 6 67 4 34 -4 127 -6 207 -5 58 2 16 12 -105 26 -132 16 -153
17 -160 11z"/>
<path fill="green"  d="M783 191 c-65 -55 -90 -103 -73 -142 9 -22 10 -21 4 8 -5 32 12 56
26 33 5 -8 9 -6 15 7 5 10 7 22 6 26 -1 4 5 15 14 23 8 9 15 12 15 8 0 -5 15
7 33 26 19 19 42 40 53 47 18 11 17 12 -8 12 -17 1 -46 -15 -85 -48z"/>
</g>
</svg>
